<svg id="my-svg" width="100%" xmlns="http://www.w3.org/2000/svg" xmlns:xlink="http://www.w3.org/1999/xlink" class="classDiagram" style="max-width: 1712.41px; background-color: transparent;" viewBox="0 0 1712.4140625 534" role="graphics-document document" aria-roledescription="class"><style>#my-svg{font-family:"trebuchet ms",verdana,arial,sans-serif;font-size:16px;fill:#333;}@keyframes edge-animation-frame{from{stroke-dashoffset:0;}}@keyframes dash{to{stroke-dashoffset:0;}}#my-svg .edge-animation-slow{stroke-dasharray:9,5!important;stroke-dashoffset:900;animation:dash 50s linear infinite;stroke-linecap:round;}#my-svg .edge-animation-fast{stroke-dasharray:9,5!important;stroke-dashoffset:900;animation:dash 20s linear infinite;stroke-linecap:round;}#my-svg .error-icon{fill:#552222;}#my-svg .error-text{fill:#552222;stroke:#552222;}#my-svg .edge-thickness-normal{stroke-width:1px;}#my-svg .edge-thickness-thick{stroke-width:3.5px;}#my-svg .edge-pattern-solid{stroke-dasharray:0;}#my-svg .edge-thickness-invisible{stroke-width:0;fill:none;}#my-svg .edge-pattern-dashed{stroke-dasharray:3;}#my-svg .edge-pattern-dotted{stroke-dasharray:2;}#my-svg .marker{fill:#333333;stroke:#333333;}#my-svg .marker.cross{stroke:#333333;}#my-svg svg{font-family:"trebuchet ms",verdana,arial,sans-serif;font-size:16px;}#my-svg p{margin:0;}#my-svg g.classGroup text{fill:#9370DB;stroke:none;font-family:"trebuchet ms",verdana,arial,sans-serif;font-size:10px;}#my-svg g.classGroup text .title{font-weight:bolder;}#my-svg .cluster-label text{fill:#333;}#my-svg .cluster-label span{color:#333;}#my-svg .cluster-label span p{background-color:transparent;}#my-svg .cluster rect{fill:#ffffde;stroke:#aaaa33;stroke-width:1px;}#my-svg .cluster text{fill:#333;}#my-svg .cluster span{color:#333;}#my-svg .nodeLabel,#my-svg .edgeLabel{color:#131300;}#my-svg .noteLabel .nodeLabel,#my-svg .noteLabel .edgeLabel{color:black;}#my-svg .edgeLabel .label rect{fill:#ECECFF;}#my-svg .label text{fill:#131300;}#my-svg .labelBkg{background:#ECECFF;}#my-svg .edgeLabel .label span{background:#ECECFF;}#my-svg .classTitle{font-weight:bolder;}#my-svg .node rect,#my-svg .node circle,#my-svg .node ellipse,#my-svg .node polygon,#my-svg .node path{fill:#ECECFF;stroke:#9370DB;stroke-width:1;}#my-svg .divider{stroke:#9370DB;stroke-width:1;}#my-svg g.clickable{cursor:pointer;}#my-svg g.classGroup rect{fill:#ECECFF;stroke:#9370DB;}#my-svg g.classGroup line{stroke:#9370DB;stroke-width:1;}#my-svg .classLabel .box{stroke:none;stroke-width:0;fill:#ECECFF;opacity:0.5;}#my-svg .classLabel .label{fill:#9370DB;font-size:10px;}#my-svg .relation{stroke:#333333;stroke-width:1;fill:none;}#my-svg .dashed-line{stroke-dasharray:3;}#my-svg .dotted-line{stroke-dasharray:1 2;}#my-svg [id$="-compositionStart"],#my-svg .composition{fill:#333333!important;stroke:#333333!important;stroke-width:1;}#my-svg [id$="-compositionEnd"],#my-svg .composition{fill:#333333!important;stroke:#333333!important;stroke-width:1;}#my-svg [id$="-dependencyStart"],#my-svg .dependency{fill:#333333!important;stroke:#333333!important;stroke-width:1;}#my-svg [id$="-dependencyEnd"],#my-svg .dependency{fill:#333333!important;stroke:#333333!important;stroke-width:1;}#my-svg [id$="-extensionStart"],#my-svg .extension{fill:transparent!important;stroke:#333333!important;stroke-width:1;}#my-svg [id$="-extensionEnd"],#my-svg .extension{fill:transparent!important;stroke:#333333!important;stroke-width:1;}#my-svg [id$="-aggregationStart"],#my-svg .aggregation{fill:transparent!important;stroke:#333333!important;stroke-width:1;}#my-svg [id$="-aggregationEnd"],#my-svg .aggregation{fill:transparent!important;stroke:#333333!important;stroke-width:1;}#my-svg [id$="-lollipopStart"],#my-svg .lollipop{fill:#ECECFF!important;stroke:#333333!important;stroke-width:1;}#my-svg [id$="-lollipopEnd"],#my-svg .lollipop{fill:#ECECFF!important;stroke:#333333!important;stroke-width:1;}#my-svg .edgeTerminals{font-size:11px;line-height:initial;}#my-svg .classTitleText{text-anchor:middle;font-size:18px;fill:#333;}#my-svg .edgeLabel[data-look="neo"]{background-color:rgba(232,232,232, 0.8);text-align:center;}#my-svg .edgeLabel[data-look="neo"] p{background-color:rgba(232,232,232, 0.8);}#my-svg .edgeLabel[data-look="neo"] rect{opacity:0.5;background-color:rgba(232,232,232, 0.8);fill:rgba(232,232,232, 0.8);}#my-svg .label-icon{display:inline-block;height:1em;overflow:visible;vertical-align:-0.125em;}#my-svg .node .label-icon path{fill:currentColor;stroke:revert;stroke-width:revert;}#my-svg .node .neo-node{stroke:#9370DB;}#my-svg [data-look="neo"].node rect,#my-svg [data-look="neo"].cluster rect,#my-svg [data-look="neo"].node polygon{stroke:#9370DB;filter:drop-shadow(1px 2px 2px rgba(185, 185, 185, 1));}#my-svg [data-look="neo"].swimlane.cluster rect{filter:none;}#my-svg [data-look="neo"].node path{stroke:#9370DB;stroke-width:1px;}#my-svg [data-look="neo"].node .outer-path{filter:drop-shadow(1px 2px 2px rgba(185, 185, 185, 1));}#my-svg [data-look="neo"].node .neo-line path{stroke:#9370DB;filter:none;}#my-svg [data-look="neo"].node circle{stroke:#9370DB;filter:drop-shadow(1px 2px 2px rgba(185, 185, 185, 1));}#my-svg [data-look="neo"].node circle .state-start{fill:#000000;}#my-svg [data-look="neo"].icon-shape .icon{fill:#9370DB;filter:drop-shadow(1px 2px 2px rgba(185, 185, 185, 1));}#my-svg [data-look="neo"].icon-shape .icon-neo path{stroke:#9370DB;filter:drop-shadow(1px 2px 2px rgba(185, 185, 185, 1));}#my-svg :root{--mermaid-font-family:"trebuchet ms",verdana,arial,sans-serif;}</style><g><defs><marker id="my-svg_class-aggregationStart" class="marker aggregation class" refX="18" refY="7" markerWidth="190" markerHeight="240" orient="auto"><path d="M 18,7 L9,13 L1,7 L9,1 Z"/></marker></defs><defs><marker id="my-svg_class-aggregationEnd" class="marker aggregation class" refX="1" refY="7" markerWidth="20" markerHeight="28" orient="auto"><path d="M 18,7 L9,13 L1,7 L9,1 Z"/></marker></defs><defs><marker id="my-svg_class-aggregationStart-margin" class="marker aggregation class" refX="15" refY="7" markerWidth="190" markerHeight="240" orient="auto" markerUnits="userSpaceOnUse"><path d="M 18,7 L9,13 L1,7 L9,1 Z" style="stroke-width: 2;"/></marker></defs><defs><marker id="my-svg_class-aggregationEnd-margin" class="marker aggregation class" refX="1" refY="7" markerWidth="20" markerHeight="28" orient="auto" markerUnits="userSpaceOnUse"><path d="M 18,7 L9,13 L1,7 L9,1 Z" style="stroke-width: 2;"/></marker></defs><defs><marker id="my-svg_class-extensionStart" class="marker extension class" refX="18" refY="7" markerWidth="20" markerHeight="28" orient="auto" markerUnits="userSpaceOnUse"><path d="M 1,7 L18,13 V 1 Z"/></marker></defs><defs><marker id="my-svg_class-extensionEnd" class="marker extension class" refX="1" refY="7" markerWidth="20" markerHeight="28" orient="auto"><path d="M 1,1 V 13 L18,7 Z"/></marker></defs><marker id="my-svg_class-extensionStart-margin" class="marker extension class" refX="18" refY="7" markerWidth="20" markerHeight="28" orient="auto" markerUnits="userSpaceOnUse" viewBox="0 0 20 14"><polygon points="10,7 18,13 18,1" style="stroke-width: 2; stroke-dasharray: 0;"/></marker><defs><marker id="my-svg_class-extensionEnd-margin" class="marker extension class" refX="9" refY="7" markerWidth="20" markerHeight="28" orient="auto" markerUnits="userSpaceOnUse" viewBox="0 0 20 14"><polygon points="10,1 10,13 18,7" style="stroke-width: 2; stroke-dasharray: 0;"/></marker></defs><defs><marker id="my-svg_class-compositionStart" class="marker composition class" refX="18" refY="7" markerWidth="190" markerHeight="240" orient="auto"><path d="M 18,7 L9,13 L1,7 L9,1 Z"/></marker></defs><defs><marker id="my-svg_class-compositionEnd" class="marker composition class" refX="1" refY="7" markerWidth="20" markerHeight="28" orient="auto"><path d="M 18,7 L9,13 L1,7 L9,1 Z"/></marker></defs><defs><marker id="my-svg_class-compositionStart-margin" class="marker composition class" refX="15" refY="7" markerWidth="190" markerHeight="240" orient="auto" markerUnits="userSpaceOnUse"><path viewBox="0 0 15 15" d="M 18,7 L9,13 L1,7 L9,1 Z" style="stroke-width: 0;"/></marker></defs><defs><marker id="my-svg_class-compositionEnd-margin" class="marker composition class" refX="3.5" refY="7" markerWidth="20" markerHeight="28" orient="auto" markerUnits="userSpaceOnUse"><path d="M 18,7 L9,13 L1,7 L9,1 Z" style="stroke-width: 0;"/></marker></defs><defs><marker id="my-svg_class-dependencyStart" class="marker dependency class" refX="6" refY="7" markerWidth="190" markerHeight="240" orient="auto"><path d="M 5,7 L9,13 L1,7 L9,1 Z"/></marker></defs><defs><marker id="my-svg_class-dependencyEnd" class="marker dependency class" refX="13" refY="7" markerWidth="20" markerHeight="28" orient="auto"><path d="M 18,7 L9,13 L14,7 L9,1 Z"/></marker></defs><defs><marker id="my-svg_class-dependencyStart-margin" class="marker dependency class" refX="4" refY="7" markerWidth="190" markerHeight="240" orient="auto" markerUnits="userSpaceOnUse"><path d="M 5,7 L9,13 L1,7 L9,1 Z" style="stroke-width: 0;"/></marker></defs><defs><marker id="my-svg_class-dependencyEnd-margin" class="marker dependency class" refX="16" refY="7" markerWidth="20" markerHeight="28" orient="auto" markerUnits="userSpaceOnUse"><path d="M 18,7 L9,13 L14,7 L9,1 Z" style="stroke-width: 0;"/></marker></defs><defs><marker id="my-svg_class-lollipopStart" class="marker lollipop class" refX="13" refY="7" markerWidth="190" markerHeight="240" orient="auto"><circle fill="transparent" cx="7" cy="7" r="6"/></marker></defs><defs><marker id="my-svg_class-lollipopEnd" class="marker lollipop class" refX="1" refY="7" markerWidth="190" markerHeight="240" orient="auto"><circle fill="transparent" cx="7" cy="7" r="6"/></marker></defs><defs><marker id="my-svg_class-lollipopStart-margin" class="marker lollipop class" refX="13" refY="7" markerWidth="190" markerHeight="240" orient="auto" markerUnits="userSpaceOnUse"><circle fill="transparent" cx="7" cy="7" r="6" stroke-width="2"/></marker></defs><defs><marker id="my-svg_class-lollipopEnd-margin" class="marker lollipop class" refX="1" refY="7" markerWidth="190" markerHeight="240" orient="auto" markerUnits="userSpaceOnUse"><circle fill="transparent" cx="7" cy="7" r="6" stroke-width="2"/></marker></defs><g class="root"><g class="clusters"/><g class="edgePaths"><path d="M749.986,172.964L646.097,190.637C542.207,208.309,334.428,243.655,230.538,273.494C126.648,303.333,126.648,327.667,126.648,339.833L126.648,352" id="my-svg-id_BaseExecutor_DefaultExecutor_1" class="edge-thickness-normal edge-pattern-solid relation" style=";;;" data-edge="true" data-et="edge" data-id="id_BaseExecutor_DefaultExecutor_1" data-points="W3sieCI6NzY2Ljk5MjE4NzUsInkiOjE3MC4wNzEzODMzNTI3MTQzfSx7IngiOjEyNi42NDg0Mzc1LCJ5IjoyNzl9LHsieCI6MTI2LjY0ODQzNzUsInkiOjM1Mn1d" data-look="classic" marker-start="url(#my-svg_class-extensionStart)"/><path d="M750.285,194.331L695.385,208.443C640.484,222.554,530.684,250.777,475.783,269.055C420.883,287.333,420.883,295.667,420.883,299.833L420.883,304" id="my-svg-id_BaseExecutor_AntigravityExecutor_2" class="edge-thickness-normal edge-pattern-solid relation" style=";;;" data-edge="true" data-et="edge" data-id="id_BaseExecutor_AntigravityExecutor_2" data-points="W3sieCI6NzY2Ljk5MjE4NzUsInkiOjE5MC4wMzcxNDMwNzAzNTgxM30seyJ4Ijo0MjAuODgyODEyNSwieSI6Mjc5fSx7IngiOjQyMC44ODI4MTI1LCJ5IjozMDR9XQ==" data-look="classic" marker-start="url(#my-svg_class-extensionStart)"/><path d="M751.725,259.811L745.643,263.009C739.561,266.207,727.398,272.604,721.316,279.969C715.234,287.333,715.234,295.667,715.234,299.833L715.234,304" id="my-svg-id_BaseExecutor_CursorExecutor_3" class="edge-thickness-normal edge-pattern-solid relation" style=";;;" data-edge="true" data-et="edge" data-id="id_BaseExecutor_CursorExecutor_3" data-points="W3sieCI6NzY2Ljk5MjE4NzUsInkiOjI1MS43ODI0MTE5Njk2MzE3N30seyJ4Ijo3MTUuMjM0Mzc1LCJ5IjoyNzl9LHsieCI6NzE1LjIzNDM3NSwieSI6MzA0fV0=" data-look="classic" marker-start="url(#my-svg_class-extensionStart)"/><path d="M996.676,271.25L996.676,272.542C996.676,273.833,996.676,276.417,996.676,281.875C996.676,287.333,996.676,295.667,996.676,299.833L996.676,304" id="my-svg-id_BaseExecutor_KiroExecutor_4" class="edge-thickness-normal edge-pattern-solid relation" style=";;;" data-edge="true" data-et="edge" data-id="id_BaseExecutor_KiroExecutor_4" data-points="W3sieCI6OTk2LjY3NTc4MTI1LCJ5IjoyNTR9LHsieCI6OTk2LjY3NTc4MTI1LCJ5IjoyNzl9LHsieCI6OTk2LjY3NTc4MTI1LCJ5IjozMDR9XQ==" data-look="classic" marker-start="url(#my-svg_class-extensionStart)"/><path d="M1203.402,263.298L1207.492,265.915C1211.581,268.532,1219.759,273.766,1223.848,292.05C1227.938,310.333,1227.938,341.667,1227.938,357.333L1227.938,373" id="my-svg-id_BaseExecutor_CodexExecutor_5" class="edge-thickness-normal edge-pattern-solid relation" style=";;;" data-edge="true" data-et="edge" data-id="id_BaseExecutor_CodexExecutor_5" data-points="W3sieCI6MTE4OC44NzMwMjA0ODE0MTksInkiOjI1NH0seyJ4IjoxMjI3LjkzNzUsInkiOjI3OX0seyJ4IjoxMjI3LjkzNzUsInkiOjM3M31d" data-look="classic" marker-start="url(#my-svg_class-extensionStart)"/><path d="M1242.683,215.039L1273.888,225.7C1305.093,236.36,1367.504,257.68,1398.709,284.007C1429.914,310.333,1429.914,341.667,1429.914,357.333L1429.914,373" id="my-svg-id_BaseExecutor_GeminiCLIExecutor_6" class="edge-thickness-normal edge-pattern-solid relation" style=";;;" data-edge="true" data-et="edge" data-id="id_BaseExecutor_GeminiCLIExecutor_6" data-points="W3sieCI6MTIyNi4zNTkzNzUsInkiOjIwOS40NjI5OTIxODI3ODA0OH0seyJ4IjoxNDI5LjkxNDA2MjUsInkiOjI3OX0seyJ4IjoxNDI5LjkxNDA2MjUsInkiOjM3M31d" data-look="classic" marker-start="url(#my-svg_class-extensionStart)"/><path d="M1243.162,188.252L1308.278,203.377C1373.395,218.501,1503.627,248.751,1568.743,279.542C1633.859,310.333,1633.859,341.667,1633.859,357.333L1633.859,373" id="my-svg-id_BaseExecutor_GithubExecutor_7" class="edge-thickness-normal edge-pattern-solid relation" style=";;;" data-edge="true" data-et="edge" data-id="id_BaseExecutor_GithubExecutor_7" data-points="W3sieCI6MTIyNi4zNTkzNzUsInkiOjE4NC4zNDkxMDA5NjMxMDA1N30seyJ4IjoxNjMzLjg1OTM3NSwieSI6Mjc5fSx7IngiOjE2MzMuODU5Mzc1LCJ5IjozNzN9XQ==" data-look="classic" marker-start="url(#my-svg_class-extensionStart)"/></g><g class="edgeLabels"><g class="edgeLabel"><g class="label" data-id="id_BaseExecutor_DefaultExecutor_1" transform="translate(0, 0)"><foreignObject width="0" height="0"><div xmlns="http://www.w3.org/1999/xhtml" class="labelBkg" style="display: table-cell; white-space: nowrap; line-height: 1.5; max-width: 200px; text-align: center;"><span class="edgeLabel"></span></div></foreignObject></g></g><g class="edgeLabel"><g class="label" data-id="id_BaseExecutor_AntigravityExecutor_2" transform="translate(0, 0)"><foreignObject width="0" height="0"><div xmlns="http://www.w3.org/1999/xhtml" class="labelBkg" style="display: table-cell; white-space: nowrap; line-height: 1.5; max-width: 200px; text-align: center;"><span class="edgeLabel"></span></div></foreignObject></g></g><g class="edgeLabel"><g class="label" data-id="id_BaseExecutor_CursorExecutor_3" transform="translate(0, 0)"><foreignObject width="0" height="0"><div xmlns="http://www.w3.org/1999/xhtml" class="labelBkg" style="display: table-cell; white-space: nowrap; line-height: 1.5; max-width: 200px; text-align: center;"><span class="edgeLabel"></span></div></foreignObject></g></g><g class="edgeLabel"><g class="label" data-id="id_BaseExecutor_KiroExecutor_4" transform="translate(0, 0)"><foreignObject width="0" height="0"><div xmlns="http://www.w3.org/1999/xhtml" class="labelBkg" style="display: table-cell; white-space: nowrap; line-height: 1.5; max-width: 200px; text-align: center;"><span class="edgeLabel"></span></div></foreignObject></g></g><g class="edgeLabel"><g class="label" data-id="id_BaseExecutor_CodexExecutor_5" transform="translate(0, 0)"><foreignObject width="0" height="0"><div xmlns="http://www.w3.org/1999/xhtml" class="labelBkg" style="display: table-cell; white-space: nowrap; line-height: 1.5; max-width: 200px; text-align: center;"><span class="edgeLabel"></span></div></foreignObject></g></g><g class="edgeLabel"><g class="label" data-id="id_BaseExecutor_GeminiCLIExecutor_6" transform="translate(0, 0)"><foreignObject width="0" height="0"><div xmlns="http://www.w3.org/1999/xhtml" class="labelBkg" style="display: table-cell; white-space: nowrap; line-height: 1.5; max-width: 200px; text-align: center;"><span class="edgeLabel"></span></div></foreignObject></g></g><g class="edgeLabel"><g class="label" data-id="id_BaseExecutor_GithubExecutor_7" transform="translate(0, 0)"><foreignObject width="0" height="0"><div xmlns="http://www.w3.org/1999/xhtml" class="labelBkg" style="display: table-cell; white-space: nowrap; line-height: 1.5; max-width: 200px; text-align: center;"><span class="edgeLabel"></span></div></foreignObject></g></g></g><g class="nodes"><g class="node default" id="my-svg-classId-BaseExecutor-0" data-look="classic" transform="translate(996.67578125, 131)"><g class="basic label-container outer-path"><path d="M-229.68359375 -123 L229.68359375 -123 L229.68359375 123 L-229.68359375 123" stroke="none" stroke-width="0" fill="#ECECFF" style=""/><path d="M-229.68359375 -123 C-77.44973589606849 -123, 74.78412195786302 -123, 229.68359375 -123 M-229.68359375 -123 C-132.9234413546984 -123, -36.16328895939682 -123, 229.68359375 -123 M229.68359375 -123 C229.68359375 -25.01879403819619, 229.68359375 72.96241192360762, 229.68359375 123 M229.68359375 -123 C229.68359375 -62.31306952479544, 229.68359375 -1.6261390495908756, 229.68359375 123 M229.68359375 123 C132.00699363625694 123, 34.33039352251387 123, -229.68359375 123 M229.68359375 123 C92.24212028635469 123, -45.19935317729062 123, -229.68359375 123 M-229.68359375 123 C-229.68359375 63.82017484243466, -229.68359375 4.640349684869321, -229.68359375 -123 M-229.68359375 123 C-229.68359375 45.453425882943236, -229.68359375 -32.09314823411353, -229.68359375 -123" stroke="#9370DB" stroke-width="1.3" fill="none" stroke-dasharray="0 0" style=""/></g><g class="annotation-group text" transform="translate(0, -99)"/><g class="label-group text" transform="translate(-50.5703125, -99)"><g class="label" style="font-weight: bolder" transform="translate(0,-12)"><foreignObject width="101.140625" height="24"><div xmlns="http://www.w3.org/1999/xhtml" style="display: table-cell; white-space: nowrap; line-height: 1.5; max-width: 139px; text-align: center;"><span class="nodeLabel markdown-node-label" style=""><p>BaseExecutor</p></span></div></foreignObject></g></g><g class="members-group text" transform="translate(-217.68359375, -51)"/><g class="methods-group text" transform="translate(-217.68359375, -21)"><g class="label" style="" transform="translate(0,-12)"><foreignObject width="244.59375" height="24"><div xmlns="http://www.w3.org/1999/xhtml" style="display: table-cell; white-space: nowrap; line-height: 1.5; max-width: 275px; text-align: center;"><span class="nodeLabel markdown-node-label" style=""><p>+buildUrl(model, stream, options)</p></span></div></foreignObject></g><g class="label" style="" transform="translate(0,12)"><foreignObject width="298.84375" height="24"><div xmlns="http://www.w3.org/1999/xhtml" style="display: table-cell; white-space: nowrap; line-height: 1.5; max-width: 320px; text-align: center;"><span class="nodeLabel markdown-node-label" style=""><p>+buildHeaders(credentials, stream, body)</p></span></div></foreignObject></g><g class="label" style="" transform="translate(0,36)"><foreignObject width="384.796875" height="24"><div xmlns="http://www.w3.org/1999/xhtml" style="display: table-cell; white-space: nowrap; line-height: 1.5; max-width: 395px; text-align: center;"><span class="nodeLabel markdown-node-label" style=""><p>+transformRequest(body, model, stream, credentials)</p></span></div></foreignObject></g><g class="label" style="" transform="translate(0,60)"><foreignObject width="159.9375" height="24"><div xmlns="http://www.w3.org/1999/xhtml" style="display: table-cell; white-space: nowrap; line-height: 1.5; max-width: 196px; text-align: center;"><span class="nodeLabel markdown-node-label" style=""><p>+execute(url, options)</p></span></div></foreignObject></g><g class="label" style="" transform="translate(0,84)"><foreignObject width="193.625" height="24"><div xmlns="http://www.w3.org/1999/xhtml" style="display: table-cell; white-space: nowrap; line-height: 1.5; max-width: 228px; text-align: center;"><span class="nodeLabel markdown-node-label" style=""><p>+shouldRetry(status, error)</p></span></div></foreignObject></g><g class="label" style="" transform="translate(0,108)"><foreignObject width="264.359375" height="24"><div xmlns="http://www.w3.org/1999/xhtml" style="display: table-cell; white-space: nowrap; line-height: 1.5; max-width: 290px; text-align: center;"><span class="nodeLabel markdown-node-label" style=""><p>+refreshCredentials(credentials, log)</p></span></div></foreignObject></g></g><g class="divider" style=""><path d="M-229.68359375 -75 C-49.12864555429121 -74.99960694853026, 131.42630264141758 -74.99921389706053, 229.68359375 -74.999 M-229.68359375 -75 C-130.03479031632193 -74.99978307374548, -30.385986882643863 -74.99956614749095, 229.68359375 -74.999" stroke="#9370DB" stroke-width="1.3" fill="none" stroke-dasharray="0 0" style=""/></g><g class="divider" style=""><path d="M-229.68359375 -51 C-108.27012648457388 -50.99973569407966, 13.143340780852242 -50.99947138815932, 229.68359375 -50.999 M-229.68359375 -51 C-62.82789746502911 -50.999636770538196, 104.02779881994178 -50.9992735410764, 229.68359375 -50.999" stroke="#9370DB" stroke-width="1.3" fill="none" stroke-dasharray="0 0" style=""/></g></g><g class="node default" id="my-svg-classId-DefaultExecutor-1" data-look="classic" transform="translate(126.6484375, 415)"><g class="basic label-container outer-path"><path d="M-118.6484375 -63 L118.6484375 -63 L118.6484375 63 L-118.6484375 63" stroke="none" stroke-width="0" fill="#ECECFF" style=""/><path d="M-118.6484375 -63 C-47.39277580530165 -63, 23.862885889396694 -63, 118.6484375 -63 M-118.6484375 -63 C-56.41764878251676 -63, 5.813139934966486 -63, 118.6484375 -63 M118.6484375 -63 C118.6484375 -13.084726202387174, 118.6484375 36.83054759522565, 118.6484375 63 M118.6484375 -63 C118.6484375 -24.973795671146945, 118.6484375 13.05240865770611, 118.6484375 63 M118.6484375 63 C34.796587834458535 63, -49.05526183108293 63, -118.6484375 63 M118.6484375 63 C39.913884217564615 63, -38.82066906487077 63, -118.6484375 63 M-118.6484375 63 C-118.6484375 29.287698524310287, -118.6484375 -4.424602951379427, -118.6484375 -63 M-118.6484375 63 C-118.6484375 13.313923225066397, -118.6484375 -36.37215354986721, -118.6484375 -63" stroke="#9370DB" stroke-width="1.3" fill="none" stroke-dasharray="0 0" style=""/></g><g class="annotation-group text" transform="translate(0, -39)"/><g class="label-group text" transform="translate(-60.71875, -39)"><g class="label" style="font-weight: bolder" transform="translate(0,-12)"><foreignObject width="121.4375" height="24"><div xmlns="http://www.w3.org/1999/xhtml" style="display: table-cell; white-space: nowrap; line-height: 1.5; max-width: 156px; text-align: center;"><span class="nodeLabel markdown-node-label" style=""><p>DefaultExecutor</p></span></div></foreignObject></g></g><g class="members-group text" transform="translate(-106.6484375, 9)"/><g class="methods-group text" transform="translate(-106.6484375, 39)"><g class="label" style="" transform="translate(0,-12)"><foreignObject width="152.578125" height="24"><div xmlns="http://www.w3.org/1999/xhtml" style="display: table-cell; white-space: nowrap; line-height: 1.5; max-width: 192px; text-align: center;"><span class="nodeLabel markdown-node-label" style=""><p>+refreshCredentials()</p></span></div></foreignObject></g></g><g class="divider" style=""><path d="M-118.6484375 -15 C-59.875891026086386 -14.999752324818969, -1.1033445521727714 -14.999504649637936, 118.6484375 -14.999 M-118.6484375 -15 C-30.43625664545455 -14.999628262357628, 57.7759242090909 -14.999256524715259, 118.6484375 -14.999" stroke="#9370DB" stroke-width="1.3" fill="none" stroke-dasharray="0 0" style=""/></g><g class="divider" style=""><path d="M-118.6484375 9 C-38.34613049222469 9.000338404401692, 41.956176515550624 9.000676808803384, 118.6484375 9.001 M-118.6484375 9 C-58.29121152444153 9.000254353227263, 2.066014451116942 9.000508706454525, 118.6484375 9.001" stroke="#9370DB" stroke-width="1.3" fill="none" stroke-dasharray="0 0" style=""/></g></g><g class="node default" id="my-svg-classId-AntigravityExecutor-2" data-look="classic" transform="translate(420.8828125, 415)"><g class="basic label-container outer-path"><path d="M-125.5859375 -111 L125.5859375 -111 L125.5859375 111 L-125.5859375 111" stroke="none" stroke-width="0" fill="#ECECFF" style=""/><path d="M-125.5859375 -111 C-56.58871829279866 -111, 12.40850091440268 -111, 125.5859375 -111 M-125.5859375 -111 C-57.98808236063627 -111, 9.60977277872746 -111, 125.5859375 -111 M125.5859375 -111 C125.5859375 -28.92980003267897, 125.5859375 53.14039993464206, 125.5859375 111 M125.5859375 -111 C125.5859375 -29.80375071375184, 125.5859375 51.39249857249632, 125.5859375 111 M125.5859375 111 C59.42441988404241 111, -6.737097731915185 111, -125.5859375 111 M125.5859375 111 C60.735232260440796 111, -4.115472979118408 111, -125.5859375 111 M-125.5859375 111 C-125.5859375 54.864773768745785, -125.5859375 -1.2704524625084304, -125.5859375 -111 M-125.5859375 111 C-125.5859375 38.67023794990773, -125.5859375 -33.65952410018454, -125.5859375 -111" stroke="#9370DB" stroke-width="1.3" fill="none" stroke-dasharray="0 0" style=""/></g><g class="annotation-group text" transform="translate(0, -87)"/><g class="label-group text" transform="translate(-74.59375, -87)"><g class="label" style="font-weight: bolder" transform="translate(0,-12)"><foreignObject width="149.1875" height="24"><div xmlns="http://www.w3.org/1999/xhtml" style="display: table-cell; white-space: nowrap; line-height: 1.5; max-width: 182px; text-align: center;"><span class="nodeLabel markdown-node-label" style=""><p>AntigravityExecutor</p></span></div></foreignObject></g></g><g class="members-group text" transform="translate(-113.5859375, -39)"/><g class="methods-group text" transform="translate(-113.5859375, -9)"><g class="label" style="" transform="translate(0,-12)"><foreignObject width="77.3125" height="24"><div xmlns="http://www.w3.org/1999/xhtml" style="display: table-cell; white-space: nowrap; line-height: 1.5; max-width: 129px; text-align: center;"><span class="nodeLabel markdown-node-label" style=""><p>+buildUrl()</p></span></div></foreignObject></g><g class="label" style="" transform="translate(0,12)"><foreignObject width="113.9375" height="24"><div xmlns="http://www.w3.org/1999/xhtml" style="display: table-cell; white-space: nowrap; line-height: 1.5; max-width: 160px; text-align: center;"><span class="nodeLabel markdown-node-label" style=""><p>+buildHeaders()</p></span></div></foreignObject></g><g class="label" style="" transform="translate(0,36)"><foreignObject width="146.921875" height="24"><div xmlns="http://www.w3.org/1999/xhtml" style="display: table-cell; white-space: nowrap; line-height: 1.5; max-width: 188px; text-align: center;"><span class="nodeLabel markdown-node-label" style=""><p>+transformRequest()</p></span></div></foreignObject></g><g class="label" style="" transform="translate(0,60)"><foreignObject width="104.171875" height="24"><div xmlns="http://www.w3.org/1999/xhtml" style="display: table-cell; white-space: nowrap; line-height: 1.5; max-width: 153px; text-align: center;"><span class="nodeLabel markdown-node-label" style=""><p>+shouldRetry()</p></span></div></foreignObject></g><g class="label" style="" transform="translate(0,84)"><foreignObject width="152.578125" height="24"><div xmlns="http://www.w3.org/1999/xhtml" style="display: table-cell; white-space: nowrap; line-height: 1.5; max-width: 192px; text-align: center;"><span class="nodeLabel markdown-node-label" style=""><p>+refreshCredentials()</p></span></div></foreignObject></g></g><g class="divider" style=""><path d="M-125.5859375 -63 C-71.48161445850727 -62.999784592430814, -17.37729141701452 -62.99956918486163, 125.5859375 -62.999 M-125.5859375 -63 C-73.76130289983328 -62.99979366863985, -21.936668299666565 -62.9995873372797, 125.5859375 -62.999" stroke="#9370DB" stroke-width="1.3" fill="none" stroke-dasharray="0 0" style=""/></g><g class="divider" style=""><path d="M-125.5859375 -39 C-46.8915591944498 -38.99968669112214, 31.802819111100405 -38.999373382244286, 125.5859375 -38.999 M-125.5859375 -39 C-37.64653894227246 -38.9996498835765, 50.292859615455086 -38.99929976715301, 125.5859375 -38.999" stroke="#9370DB" stroke-width="1.3" fill="none" stroke-dasharray="0 0" style=""/></g></g><g class="node default" id="my-svg-classId-CursorExecutor-3" data-look="classic" transform="translate(715.234375, 415)"><g class="basic label-container outer-path"><path d="M-118.765625 -111 L118.765625 -111 L118.765625 111 L-118.765625 111" stroke="none" stroke-width="0" fill="#ECECFF" style=""/><path d="M-118.765625 -111 C-33.42363185311996 -111, 51.918361293760086 -111, 118.765625 -111 M-118.765625 -111 C-70.72098467934404 -111, -22.676344358688098 -111, 118.765625 -111 M118.765625 -111 C118.765625 -61.22551818440671, 118.765625 -11.45103636881342, 118.765625 111 M118.765625 -111 C118.765625 -53.807404558161835, 118.765625 3.38519088367633, 118.765625 111 M118.765625 111 C60.51649297776487 111, 2.267360955529739 111, -118.765625 111 M118.765625 111 C56.83721439031893 111, -5.091196219362146 111, -118.765625 111 M-118.765625 111 C-118.765625 57.574203956569065, -118.765625 4.148407913138129, -118.765625 -111 M-118.765625 111 C-118.765625 57.28164080708702, -118.765625 3.563281614174045, -118.765625 -111" stroke="#9370DB" stroke-width="1.3" fill="none" stroke-dasharray="0 0" style=""/></g><g class="annotation-group text" transform="translate(0, -87)"/><g class="label-group text" transform="translate(-57.9375, -87)"><g class="label" style="font-weight: bolder" transform="translate(0,-12)"><foreignObject width="115.875" height="24"><div xmlns="http://www.w3.org/1999/xhtml" style="display: table-cell; white-space: nowrap; line-height: 1.5; max-width: 151px; text-align: center;"><span class="nodeLabel markdown-node-label" style=""><p>CursorExecutor</p></span></div></foreignObject></g></g><g class="members-group text" transform="translate(-106.765625, -39)"/><g class="methods-group text" transform="translate(-106.765625, -9)"><g class="label" style="" transform="translate(0,-12)"><foreignObject width="77.3125" height="24"><div xmlns="http://www.w3.org/1999/xhtml" style="display: table-cell; white-space: nowrap; line-height: 1.5; max-width: 129px; text-align: center;"><span class="nodeLabel markdown-node-label" style=""><p>+buildUrl()</p></span></div></foreignObject></g><g class="label" style="" transform="translate(0,12)"><foreignObject width="113.9375" height="24"><div xmlns="http://www.w3.org/1999/xhtml" style="display: table-cell; white-space: nowrap; line-height: 1.5; max-width: 160px; text-align: center;"><span class="nodeLabel markdown-node-label" style=""><p>+buildHeaders()</p></span></div></foreignObject></g><g class="label" style="" transform="translate(0,36)"><foreignObject width="146.921875" height="24"><div xmlns="http://www.w3.org/1999/xhtml" style="display: table-cell; white-space: nowrap; line-height: 1.5; max-width: 188px; text-align: center;"><span class="nodeLabel markdown-node-label" style=""><p>+transformRequest()</p></span></div></foreignObject></g><g class="label" style="" transform="translate(0,60)"><foreignObject width="124.203125" height="24"><div xmlns="http://www.w3.org/1999/xhtml" style="display: table-cell; white-space: nowrap; line-height: 1.5; max-width: 170px; text-align: center;"><span class="nodeLabel markdown-node-label" style=""><p>+parseResponse()</p></span></div></foreignObject></g><g class="label" style="" transform="translate(0,84)"><foreignObject width="155.59375" height="24"><div xmlns="http://www.w3.org/1999/xhtml" style="display: table-cell; white-space: nowrap; line-height: 1.5; max-width: 196px; text-align: center;"><span class="nodeLabel markdown-node-label" style=""><p>+generateChecksum()</p></span></div></foreignObject></g></g><g class="divider" style=""><path d="M-118.765625 -63 C-67.09086157584248 -62.99978245067365, -15.416098151684963 -62.999564901347306, 118.765625 -62.999 M-118.765625 -63 C-34.792591419348625 -62.99964647584863, 49.18044216130275 -62.99929295169726, 118.765625 -62.999" stroke="#9370DB" stroke-width="1.3" fill="none" stroke-dasharray="0 0" style=""/></g><g class="divider" style=""><path d="M-118.765625 -39 C-63.29020019934921 -38.99976644999426, -7.814775398698416 -38.99953289998852, 118.765625 -38.999 M-118.765625 -39 C-36.078694045549426 -38.99965189030515, 46.60823690890115 -38.999303780610305, 118.765625 -38.999" stroke="#9370DB" stroke-width="1.3" fill="none" stroke-dasharray="0 0" style=""/></g></g><g class="node default" id="my-svg-classId-KiroExecutor-4" data-look="classic" transform="translate(996.67578125, 415)"><g class="basic label-container outer-path"><path d="M-112.67578125 -111 L112.67578125 -111 L112.67578125 111 L-112.67578125 111" stroke="none" stroke-width="0" fill="#ECECFF" style=""/><path d="M-112.67578125 -111 C-61.10321823961299 -111, -9.530655229225985 -111, 112.67578125 -111 M-112.67578125 -111 C-26.807158323270343 -111, 59.061464603459314 -111, 112.67578125 -111 M112.67578125 -111 C112.67578125 -23.38852855161565, 112.67578125 64.2229428967687, 112.67578125 111 M112.67578125 -111 C112.67578125 -29.488336151953533, 112.67578125 52.023327696092935, 112.67578125 111 M112.67578125 111 C54.108313454065225 111, -4.459154341869549 111, -112.67578125 111 M112.67578125 111 C55.430378284867196 111, -1.8150246802656085 111, -112.67578125 111 M-112.67578125 111 C-112.67578125 57.71659900210554, -112.67578125 4.433198004211079, -112.67578125 -111 M-112.67578125 111 C-112.67578125 25.67098871436734, -112.67578125 -59.65802257126532, -112.67578125 -111" stroke="#9370DB" stroke-width="1.3" fill="none" stroke-dasharray="0 0" style=""/></g><g class="annotation-group text" transform="translate(0, -87)"/><g class="label-group text" transform="translate(-48.7734375, -87)"><g class="label" style="font-weight: bolder" transform="translate(0,-12)"><foreignObject width="97.546875" height="24"><div xmlns="http://www.w3.org/1999/xhtml" style="display: table-cell; white-space: nowrap; line-height: 1.5; max-width: 137px; text-align: center;"><span class="nodeLabel markdown-node-label" style=""><p>KiroExecutor</p></span></div></foreignObject></g></g><g class="members-group text" transform="translate(-100.67578125, -39)"/><g class="methods-group text" transform="translate(-100.67578125, -9)"><g class="label" style="" transform="translate(0,-12)"><foreignObject width="77.3125" height="24"><div xmlns="http://www.w3.org/1999/xhtml" style="display: table-cell; white-space: nowrap; line-height: 1.5; max-width: 129px; text-align: center;"><span class="nodeLabel markdown-node-label" style=""><p>+buildUrl()</p></span></div></foreignObject></g><g class="label" style="" transform="translate(0,12)"><foreignObject width="113.9375" height="24"><div xmlns="http://www.w3.org/1999/xhtml" style="display: table-cell; white-space: nowrap; line-height: 1.5; max-width: 160px; text-align: center;"><span class="nodeLabel markdown-node-label" style=""><p>+buildHeaders()</p></span></div></foreignObject></g><g class="label" style="" transform="translate(0,36)"><foreignObject width="146.921875" height="24"><div xmlns="http://www.w3.org/1999/xhtml" style="display: table-cell; white-space: nowrap; line-height: 1.5; max-width: 188px; text-align: center;"><span class="nodeLabel markdown-node-label" style=""><p>+transformRequest()</p></span></div></foreignObject></g><g class="label" style="" transform="translate(0,60)"><foreignObject width="149.78125" height="24"><div xmlns="http://www.w3.org/1999/xhtml" style="display: table-cell; white-space: nowrap; line-height: 1.5; max-width: 191px; text-align: center;"><span class="nodeLabel markdown-node-label" style=""><p>+parseEventStream()</p></span></div></foreignObject></g><g class="label" style="" transform="translate(0,84)"><foreignObject width="152.578125" height="24"><div xmlns="http://www.w3.org/1999/xhtml" style="display: table-cell; white-space: nowrap; line-height: 1.5; max-width: 192px; text-align: center;"><span class="nodeLabel markdown-node-label" style=""><p>+refreshCredentials()</p></span></div></foreignObject></g></g><g class="divider" style=""><path d="M-112.67578125 -63 C-37.09100291461067 -62.99966459172727, 38.49377542077866 -62.99932918345454, 112.67578125 -62.999 M-112.67578125 -63 C-63.21132114533727 -62.9997805009224, -13.746861040674546 -62.999561001844796, 112.67578125 -62.999" stroke="#9370DB" stroke-width="1.3" fill="none" stroke-dasharray="0 0" style=""/></g><g class="divider" style=""><path d="M-112.67578125 -39 C-52.58766847915061 -38.9997333583486, 7.500444291698784 -38.9994667166972, 112.67578125 -38.999 M-112.67578125 -39 C-30.47893914522888 -38.99963525062266, 51.71790295954224 -38.99927050124532, 112.67578125 -38.999" stroke="#9370DB" stroke-width="1.3" fill="none" stroke-dasharray="0 0" style=""/></g></g><g class="node default" id="my-svg-classId-CodexExecutor-5" data-look="classic" transform="translate(1227.9375, 415)"><g class="basic label-container outer-path"><path d="M-68.5859375 -42 L68.5859375 -42 L68.5859375 42 L-68.5859375 42" stroke="none" stroke-width="0" fill="#ECECFF" style=""/><path d="M-68.5859375 -42 C-17.632673064040347 -42, 33.320591371919306 -42, 68.5859375 -42 M-68.5859375 -42 C-27.613689065016416 -42, 13.358559369967168 -42, 68.5859375 -42 M68.5859375 -42 C68.5859375 -19.79396122688721, 68.5859375 2.412077546225582, 68.5859375 42 M68.5859375 -42 C68.5859375 -17.356589436753705, 68.5859375 7.28682112649259, 68.5859375 42 M68.5859375 42 C17.129014128887647 42, -34.327909242224706 42, -68.5859375 42 M68.5859375 42 C23.679120652062124 42, -21.22769619587575 42, -68.5859375 42 M-68.5859375 42 C-68.5859375 21.378112373253956, -68.5859375 0.756224746507911, -68.5859375 -42 M-68.5859375 42 C-68.5859375 20.827611093494355, -68.5859375 -0.34477781301129085, -68.5859375 -42" stroke="#9370DB" stroke-width="1.3" fill="none" stroke-dasharray="0 0" style=""/></g><g class="annotation-group text" transform="translate(0, -18)"/><g class="label-group text" transform="translate(-56.5859375, -18)"><g class="label" style="font-weight: bolder" transform="translate(0,-12)"><foreignObject width="113.171875" height="24"><div xmlns="http://www.w3.org/1999/xhtml" style="display: table-cell; white-space: nowrap; line-height: 1.5; max-width: 150px; text-align: center;"><span class="nodeLabel markdown-node-label" style=""><p>CodexExecutor</p></span></div></foreignObject></g></g><g class="members-group text" transform="translate(-56.5859375, 30)"/><g class="methods-group text" transform="translate(-56.5859375, 60)"/><g class="divider" style=""><path d="M-68.5859375 6 C-37.936746541540934 6.000223436407489, -7.287555583081868 6.000446872814977, 68.5859375 6.001 M-68.5859375 6 C-33.36051672060694 6.000256797691067, 1.8649040587861236 6.000513595382135, 68.5859375 6.001" stroke="#9370DB" stroke-width="1.3" fill="none" stroke-dasharray="0 0" style=""/></g><g class="divider" style=""><path d="M-68.5859375 24 C-16.162790277114063 24.00038217125211, 36.260356945771875 24.00076434250422, 68.5859375 24.001 M-68.5859375 24 C-23.09094075143743 24.000331664174954, 22.40405599712514 24.000663328349905, 68.5859375 24.001" stroke="#9370DB" stroke-width="1.3" fill="none" stroke-dasharray="0 0" style=""/></g></g><g class="node default" id="my-svg-classId-GeminiCLIExecutor-6" data-look="classic" transform="translate(1429.9140625, 415)"><g class="basic label-container outer-path"><path d="M-83.390625 -42 L83.390625 -42 L83.390625 42 L-83.390625 42" stroke="none" stroke-width="0" fill="#ECECFF" style=""/><path d="M-83.390625 -42 C-23.90506367216038 -42, 35.58049765567924 -42, 83.390625 -42 M-83.390625 -42 C-20.22226465865492 -42, 42.94609568269016 -42, 83.390625 -42 M83.390625 -42 C83.390625 -8.461861010537582, 83.390625 25.076277978924836, 83.390625 42 M83.390625 -42 C83.390625 -12.814136509254084, 83.390625 16.371726981491832, 83.390625 42 M83.390625 42 C32.3171723949593 42, -18.7562802100814 42, -83.390625 42 M83.390625 42 C49.266504251753084 42, 15.142383503506167 42, -83.390625 42 M-83.390625 42 C-83.390625 19.549066993418364, -83.390625 -2.9018660131632714, -83.390625 -42 M-83.390625 42 C-83.390625 21.14574489802368, -83.390625 0.29148979604735814, -83.390625 -42" stroke="#9370DB" stroke-width="1.3" fill="none" stroke-dasharray="0 0" style=""/></g><g class="annotation-group text" transform="translate(0, -18)"/><g class="label-group text" transform="translate(-71.390625, -18)"><g class="label" style="font-weight: bolder" transform="translate(0,-12)"><foreignObject width="142.78125" height="24"><div xmlns="http://www.w3.org/1999/xhtml" style="display: table-cell; white-space: nowrap; line-height: 1.5; max-width: 182px; text-align: center;"><span class="nodeLabel markdown-node-label" style=""><p>GeminiCLIExecutor</p></span></div></foreignObject></g></g><g class="members-group text" transform="translate(-71.390625, 30)"/><g class="methods-group text" transform="translate(-71.390625, 60)"/><g class="divider" style=""><path d="M-83.390625 6 C-25.572476186540797 6.000346670556873, 32.245672626918406 6.000693341113746, 83.390625 6.001 M-83.390625 6 C-47.40163070031162 6.0002157856131895, -11.412636400623242 6.000431571226378, 83.390625 6.001" stroke="#9370DB" stroke-width="1.3" fill="none" stroke-dasharray="0 0" style=""/></g><g class="divider" style=""><path d="M-83.390625 24 C-16.709338168528873 24.000399812849654, 49.97194866294225 24.00079962569931, 83.390625 24.001 M-83.390625 24 C-26.394971115733775 24.00034173897776, 30.60068276853245 24.00068347795552, 83.390625 24.001" stroke="#9370DB" stroke-width="1.3" fill="none" stroke-dasharray="0 0" style=""/></g></g><g class="node default" id="my-svg-classId-GithubExecutor-7" data-look="classic" transform="translate(1633.859375, 415)"><g class="basic label-container outer-path"><path d="M-70.5546875 -42 L70.5546875 -42 L70.5546875 42 L-70.5546875 42" stroke="none" stroke-width="0" fill="#ECECFF" style=""/><path d="M-70.5546875 -42 C-39.125537513005256 -42, -7.696387526010504 -42, 70.5546875 -42 M-70.5546875 -42 C-25.39493177310682 -42, 19.76482395378636 -42, 70.5546875 -42 M70.5546875 -42 C70.5546875 -11.033686890196165, 70.5546875 19.93262621960767, 70.5546875 42 M70.5546875 -42 C70.5546875 -12.691360449443174, 70.5546875 16.617279101113652, 70.5546875 42 M70.5546875 42 C32.99333307602749 42, -4.56802134794502 42, -70.5546875 42 M70.5546875 42 C21.7059396287791 42, -27.142808242441802 42, -70.5546875 42 M-70.5546875 42 C-70.5546875 12.751064719419535, -70.5546875 -16.49787056116093, -70.5546875 -42 M-70.5546875 42 C-70.5546875 17.83461553643986, -70.5546875 -6.330768927120282, -70.5546875 -42" stroke="#9370DB" stroke-width="1.3" fill="none" stroke-dasharray="0 0" style=""/></g><g class="annotation-group text" transform="translate(0, -18)"/><g class="label-group text" transform="translate(-58.5546875, -18)"><g class="label" style="font-weight: bolder" transform="translate(0,-12)"><foreignObject width="117.109375" height="24"><div xmlns="http://www.w3.org/1999/xhtml" style="display: table-cell; white-space: nowrap; line-height: 1.5; max-width: 152px; text-align: center;"><span class="nodeLabel markdown-node-label" style=""><p>GithubExecutor</p></span></div></foreignObject></g></g><g class="members-group text" transform="translate(-58.5546875, 30)"/><g class="methods-group text" transform="translate(-58.5546875, 60)"/><g class="divider" style=""><path d="M-70.5546875 6 C-42.15310337920472 6.000201273544871, -13.751519258409452 6.000402547089743, 70.5546875 6.001 M-70.5546875 6 C-18.589023322203396 6.000368265143105, 33.37664085559321 6.0007365302862095, 70.5546875 6.001" stroke="#9370DB" stroke-width="1.3" fill="none" stroke-dasharray="0 0" style=""/></g><g class="divider" style=""><path d="M-70.5546875 24 C-34.421823183556235 24.000256062818764, 1.7110411328875301 24.000512125637528, 70.5546875 24.001 M-70.5546875 24 C-28.515713021421888 24.000297917657694, 13.523261457156224 24.000595835315387, 70.5546875 24.001" stroke="#9370DB" stroke-width="1.3" fill="none" stroke-dasharray="0 0" style=""/></g></g></g></g></g><defs><filter id="my-svg-drop-shadow" height="130%" width="130%"><feDropShadow dx="4" dy="4" stdDeviation="0" flood-opacity="0.06" flood-color="#000000"/></filter></defs><defs><filter id="my-svg-drop-shadow-small" height="150%" width="150%"><feDropShadow dx="2" dy="2" stdDeviation="0" flood-opacity="0.06" flood-color="#000000"/></filter></defs></svg>